<?xml version="1.0" encoding="UTF-8" standalone="no"?>
<!-- Created with Inkscape (http://www.inkscape.org/) -->

<svg
   xmlns:dc="http://purl.org/dc/elements/1.1/"
   xmlns:cc="http://creativecommons.org/ns#"
   xmlns:rdf="http://www.w3.org/1999/02/22-rdf-syntax-ns#"
   xmlns:svg="http://www.w3.org/2000/svg"
   xmlns="http://www.w3.org/2000/svg"
   xmlns:xlink="http://www.w3.org/1999/xlink"
   xmlns:sodipodi="http://sodipodi.sourceforge.net/DTD/sodipodi-0.dtd"
   xmlns:inkscape="http://www.inkscape.org/namespaces/inkscape"
   width="600"
   height="600"
   viewBox="0 0 158.75 158.75"
   version="1.1"
   id="svg8"
   inkscape:version="0.92.1 r15371"
   sodipodi:docname="icon.svg"
   inkscape:export-filename="C:\Users\Takumiya_Cho\Desktop\KOISHI_T.png"
   inkscape:export-xdpi="96"
   inkscape:export-ydpi="96">
  <defs
     id="defs2">
    <linearGradient
       id="linearGradient4509"
       inkscape:collect="always">
      <stop
         id="stop4505"
         offset="0"
         style="stop-color:#f5feff;stop-opacity:1" />
      <stop
         id="stop4507"
         offset="1"
         style="stop-color:#e1abef;stop-opacity:1" />
    </linearGradient>
    <linearGradient
       inkscape:collect="always"
       id="linearGradient4510">
      <stop
         style="stop-color:#e1abef;stop-opacity:1"
         offset="0"
         id="stop4506" />
      <stop
         style="stop-color:#e1abef;stop-opacity:1"
         offset="1"
         id="stop4508" />
    </linearGradient>
    <linearGradient
       inkscape:collect="always"
       xlink:href="#linearGradient4510"
       id="linearGradient4516"
       x1="79.703873"
       y1="218.51184"
       x2="79.703873"
       y2="234.4003"
       gradientUnits="userSpaceOnUse" />
    <linearGradient
       inkscape:collect="always"
       xlink:href="#linearGradient4509"
       id="linearGradient4521"
       gradientUnits="userSpaceOnUse"
       x1="79.703873"
       y1="218.51184"
       x2="79.703873"
       y2="234.4003"
       gradientTransform="matrix(0.99305035,0,0,1.2304862,0.54904802,-50.161836)" />
  </defs>
  <sodipodi:namedview
     id="base"
     pagecolor="#ffffff"
     bordercolor="#666666"
     borderopacity="1.0"
     inkscape:pageopacity="0.0"
     inkscape:pageshadow="2"
     inkscape:zoom="0.70710678"
     inkscape:cx="-124.00082"
     inkscape:cy="378.27199"
     inkscape:document-units="mm"
     inkscape:current-layer="layer1"
     showgrid="false"
     units="px"
     inkscape:snap-page="true"
     inkscape:snap-bbox="true"
     inkscape:bbox-paths="true"
     inkscape:bbox-nodes="true"
     inkscape:snap-bbox-edge-midpoints="true"
     inkscape:snap-bbox-midpoints="true"
     inkscape:object-paths="true"
     inkscape:snap-intersection-paths="true"
     inkscape:snap-center="true"
     inkscape:snap-object-midpoints="true"
     inkscape:snap-midpoints="true"
     inkscape:snap-global="true"
     showguides="false"
     inkscape:window-width="1920"
     inkscape:window-height="965"
     inkscape:window-x="-8"
     inkscape:window-y="-8"
     inkscape:window-maximized="1" />
  <metadata
     id="metadata5">
    <rdf:RDF>
      <cc:Work
         rdf:about="">
        <dc:format>image/svg+xml</dc:format>
        <dc:type
           rdf:resource="http://purl.org/dc/dcmitype/StillImage" />
        <dc:title></dc:title>
      </cc:Work>
    </rdf:RDF>
  </metadata>
  <g
     inkscape:label="レイヤー 1"
     inkscape:groupmode="layer"
     id="layer1"
     transform="translate(0,-138.24998)">
    <g
       id="g4585"
       transform="matrix(0.94055419,0,0,0.94055419,3.5270784,11.745456)">
      <g
         id="g4561"
         transform="rotate(180,78.527709,218.31521)">
        <path
           style="fill:none;fill-rule:evenodd;stroke:#54088c;stroke-width:6;stroke-linecap:butt;stroke-linejoin:miter;stroke-miterlimit:4;stroke-dasharray:none;stroke-opacity:1"
           d="m 33.420013,179.29509 -0.578607,-0.49771 c 0,0 -2.572131,-2.33091 -2.282031,-4.43178 2.15505,-15.60664 -9.474724,-11.86617 5.538141,-24.02868"
           id="path4557"
           inkscape:connector-curvature="0"
           sodipodi:nodetypes="ccsc" />
        <rect
           transform="rotate(-42.91779)"
           y="151.07292"
           x="-102.47856"
           height="18.844521"
           width="9.6364021"
           id="rect4559"
           style="opacity:1;fill:#43007b;fill-opacity:1;fill-rule:nonzero;stroke:none;stroke-width:3.99004269;stroke-linecap:round;stroke-linejoin:round;stroke-miterlimit:4;stroke-dasharray:none;stroke-dashoffset:0;stroke-opacity:1;paint-order:markers fill stroke" />
      </g>
      <g
         transform="rotate(90,75.485001,223.47458)"
         id="g4555">
        <path
           sodipodi:nodetypes="ccssc"
           inkscape:connector-curvature="0"
           id="path4551"
           d="m 33.420013,179.29509 -0.578607,-0.49771 c 0,0 -2.572131,-2.33091 -2.282031,-4.43178 0.927003,-6.71326 15.711443,-8.85274 19.319726,-13.43339 C 54.65917,154.864 45.309858,147.96698 37.15585,147.16192"
           style="fill:none;fill-rule:evenodd;stroke:#54088c;stroke-width:6;stroke-linecap:butt;stroke-linejoin:miter;stroke-miterlimit:4;stroke-dasharray:none;stroke-opacity:1" />
        <rect
           style="opacity:1;fill:#43007b;fill-opacity:1;fill-rule:nonzero;stroke:none;stroke-width:3.99004269;stroke-linecap:round;stroke-linejoin:round;stroke-miterlimit:4;stroke-dasharray:none;stroke-dashoffset:0;stroke-opacity:1;paint-order:markers fill stroke"
           id="rect4553"
           width="9.6364021"
           height="18.844521"
           x="-102.47856"
           y="151.07292"
           transform="rotate(-42.91779)" />
      </g>
      <circle
         r="78.201187"
         cy="218.89172"
         cx="80.641739"
         id="path4485"
         style="opacity:1;fill:none;fill-opacity:1;fill-rule:nonzero;stroke:#54088c;stroke-width:12.38099848;stroke-linecap:round;stroke-linejoin:round;stroke-miterlimit:4;stroke-dasharray:none;stroke-dashoffset:0;stroke-opacity:1;paint-order:stroke markers fill" />
      <g
         id="g4549">
        <path
           style="fill:none;fill-rule:evenodd;stroke:#54088c;stroke-width:6;stroke-linecap:butt;stroke-linejoin:miter;stroke-miterlimit:4;stroke-dasharray:none;stroke-opacity:1"
           d="m 33.420013,179.29509 -0.578607,-0.49771 c 0,0 -2.57213,-2.33091 -2.282031,-4.43178 2.15505,-15.60664 13.425275,-23.65367 25.117308,-32.49535"
           id="path4525"
           inkscape:connector-curvature="0"
           sodipodi:nodetypes="ccsc" />
        <rect
           transform="rotate(-42.91779)"
           y="151.07292"
           x="-102.47856"
           height="18.844521"
           width="9.6364021"
           id="rect4518"
           style="opacity:1;fill:#43007b;fill-opacity:1;fill-rule:nonzero;stroke:none;stroke-width:3.99004269;stroke-linecap:round;stroke-linejoin:round;stroke-miterlimit:4;stroke-dasharray:none;stroke-dashoffset:0;stroke-opacity:1;paint-order:markers fill stroke" />
      </g>
      <g
         transform="rotate(-90,81.702717,218.84438)"
         id="g4567">
        <path
           sodipodi:nodetypes="ccsc"
           inkscape:connector-curvature="0"
           id="path4563"
           d="m 33.420013,179.29509 -0.578607,-0.49771 c 0,0 -2.57213,-2.33091 -2.282031,-4.43178 2.15505,-15.60664 61.050275,-4.60367 80.150645,-32.49535"
           style="fill:none;fill-rule:evenodd;stroke:#54088c;stroke-width:6;stroke-linecap:butt;stroke-linejoin:miter;stroke-miterlimit:4;stroke-dasharray:none;stroke-opacity:1" />
        <rect
           style="opacity:1;fill:#43007b;fill-opacity:1;fill-rule:nonzero;stroke:none;stroke-width:3.99004269;stroke-linecap:round;stroke-linejoin:round;stroke-miterlimit:4;stroke-dasharray:none;stroke-dashoffset:0;stroke-opacity:1;paint-order:markers fill stroke"
           id="rect4565"
           width="9.6364021"
           height="18.844521"
           x="-102.47856"
           y="151.07292"
           transform="rotate(-42.91779)" />
      </g>
      <circle
         r="51.686176"
         cy="217.62498"
         cx="79.375"
         id="path4491"
         style="opacity:1;fill:#54088c;fill-opacity:1;fill-rule:nonzero;stroke:none;stroke-width:2.25;stroke-linecap:round;stroke-linejoin:round;stroke-miterlimit:4;stroke-dasharray:none;stroke-dashoffset:0;stroke-opacity:0.94721404;paint-order:markers fill stroke" />
      <path
         sodipodi:nodetypes="czccc"
         inkscape:connector-curvature="0"
         id="path4500"
         d="m 30.367011,218.69666 c 0,0 20.7557,2.6191 49.008068,2.6191 28.252361,0 49.008071,-2.6191 49.008071,-2.6191 v 0 0"
         style="fill:none;fill-rule:evenodd;stroke:#2f004c;stroke-width:5.28205633;stroke-linecap:round;stroke-linejoin:miter;stroke-miterlimit:4;stroke-dasharray:none;stroke-opacity:1" />
      <path
         sodipodi:nodetypes="czccccccccccccccccccccccccccccccccccccccccccccc"
         inkscape:connector-curvature="0"
         id="path4493"
         d="m 129.68083,218.71397 c 0,0 -23.79864,2.58442 -50.308413,2.58442 -26.509777,0 -50.308417,-2.58442 -50.308417,-2.58442 h 0.0041 c 0.504869,1.6196 1.215163,8.95869 1.514606,10.54073 0.809046,-0.80984 2.032736,-3.34786 2.657249,-4.2381 0.58435,2.03939 1.636117,4.10271 1.361196,7.09782 1.360666,-1.72072 1.558802,-7.00416 2.436167,-8.33722 1.305991,2.79676 1.49019,4.37108 2.350553,6.73414 1.120014,-1.29784 2.657043,-4.80461 3.443036,-5.27413 0.435888,1.62675 1.206004,3.95043 1.403166,5.63433 0.460927,-1.72019 1.868379,-2.15641 2.704604,-5.63889 1.244559,0.8798 2.061621,4.43022 2.570756,6.33035 0.81865,-1.68967 2.252839,-4.90675 3.155311,-6.46987 0.959509,2.27534 1.251074,8.1369 1.864916,10.43204 1.860688,-5.01069 2.784394,-8.91103 3.978604,-10.24932 0.303889,1.64534 1.880068,4.21595 2.283161,7.12724 1.207112,-2.3475 1.602995,-4.64741 2.404492,-6.97112 1.540337,1.17706 3.812982,5.95809 4.586388,10.03738 1.282333,-1.66343 1.104431,-4.55611 2.604143,-6.93075 1.453387,1.48568 1.874205,3.47825 2.248107,6.17008 1.546332,-2.27307 2.13398,-4.44175 4.386763,-6.60489 0.249637,0.48184 1.65587,6.50033 1.65587,6.50033 l 0.09663,-5.20824 c 0,0 3.348661,4.69919 4.236403,6.08118 -0.02356,-2.32204 0.845955,-5.55191 0.972158,-7.30623 2.447089,2.31807 2.465591,3.93843 4.163951,9.11403 0.811873,-4.58541 1.723832,-7.69663 1.955349,-11.6429 1.117601,1.66684 3.491102,3.34448 4.724296,5.78425 0.409048,-1.38691 0.392387,-3.49725 0.588581,-5.24589 2.502037,3.13258 3.536313,4.47753 5.742764,9.39771 0.15706,-3.07302 -0.0427,-5.62967 1.40534,-9.0323 1.5852,1.60976 1.34706,2.17089 3.00995,6.15264 0.2977,-1.63967 2.11415,-1.94229 2.04463,-4.48087 1.97054,1.72449 1.38275,4.46722 1.90496,7.72866 0.10425,-1.39679 3.05685,-9.32718 2.87584,-11.19474 1.16219,0.97206 0.56278,2.9564 2.6049,5.16934 0.22501,-0.7527 2.08765,-3.58462 1.90693,-5.03405 1.34587,2.26352 1.182,1.48696 2.56815,4.34147 0.63968,-1.14956 0.93934,-2.88483 0.82124,-5.20891 1.04883,1.47371 2.30857,4.14088 2.30857,4.14088 0,0 2.0828,-2.79774 1.80172,-4.34355 0,0 2.0762,2.03029 3.37369,4.82743 0.0981,-1.96529 -0.0321,-5.0394 -0.0481,-7.55909 0.85573,1.07014 1.59532,0.16719 2.56716,3.21044 0.17401,-2.1133 -0.41425,-3.72051 -0.62137,-5.58076 z"
         style="fill:url(#linearGradient4521);fill-opacity:1;fill-rule:evenodd;stroke:none;stroke-width:0.29675469px;stroke-linecap:butt;stroke-linejoin:miter;stroke-opacity:1" />
    </g>
  </g>
</svg>
