<svg xmlns="http://www.w3.org/2000/svg" xmlns:xlink="http://www.w3.org/1999/xlink" width="600" height="600" viewBox="0 0 158.75 158.75"><defs><linearGradient id="b"><stop offset="0" stop-color="#f5feff"/><stop offset="1" stop-color="#e1abef"/></linearGradient><linearGradient id="a"><stop offset="0" stop-color="#e1abef"/><stop offset="1" stop-color="#e1abef"/></linearGradient><linearGradient xlink:href="#b" id="c" gradientUnits="userSpaceOnUse" x1="79.704" y1="218.512" x2="79.704" y2="234.4" gradientTransform="matrix(.99305 0 0 1.23049 .549 -50.162)"/></defs><g transform="matrix(.94055 0 0 .94055 3.527 -126.505)"><path d="M123.635 257.335l.579.498s2.572 2.33 2.282 4.432c-2.155 15.606 9.475 11.866-5.538 24.029" fill="none" stroke="#54088c" stroke-width="6"/><path fill="#43007b" paint-order="markers fill stroke" d="M129.231 256.212l-7.057 6.562-12.832-13.801 7.057-6.562z"/><path d="M119.664 181.41l.498-.579s2.331-2.572 4.432-2.282c6.713.927 8.853 15.711 13.433 19.32 6.069 4.78 12.966-4.57 13.77-12.724" fill="none" stroke="#54088c" stroke-width="6"/><path fill="#43007b" paint-order="markers fill stroke" d="M118.541 175.814l6.562 7.057-13.801 12.832-6.562-7.057z"/><circle r="78.201" cy="218.892" cx="80.642" fill="none" stroke="#54088c" stroke-width="12.381" stroke-linecap="round" stroke-linejoin="round" paint-order="stroke markers fill"/><path d="M33.42 179.295l-.579-.498s-2.572-2.33-2.282-4.431c2.155-15.607 13.426-23.654 25.118-32.496" fill="none" stroke="#54088c" stroke-width="6"/><path fill="#43007b" paint-order="markers fill stroke" d="M27.824 180.418l7.057-6.561 12.833 13.8-7.057 6.562z"/><path d="M42.153 267.127l-.497.579s-2.331 2.572-4.432 2.282c-15.607-2.155-4.604-61.05-32.495-80.15" fill="none" stroke="#54088c" stroke-width="6"/><path fill="#43007b" paint-order="markers fill stroke" d="M43.277 272.723l-6.562-7.057 13.8-12.832 6.563 7.056z"/><circle r="51.686" cy="217.625" cx="79.375" fill="#54088c" paint-order="markers fill stroke"/><path d="M30.367 218.697s20.756 2.619 49.008 2.619c28.252 0 49.008-2.62 49.008-2.62" fill="none" stroke="#2f004c" stroke-width="5.282" stroke-linecap="round"/><path d="M129.68 218.714s-23.798 2.584-50.308 2.584-50.308-2.584-50.308-2.584h.004c.505 1.62 1.215 8.959 1.515 10.54.809-.81 2.032-3.347 2.657-4.237.584 2.039 1.636 4.102 1.361 7.097 1.36-1.72 1.559-7.004 2.436-8.337 1.306 2.797 1.49 4.371 2.35 6.734 1.12-1.298 2.658-4.804 3.444-5.274.436 1.627 1.206 3.95 1.403 5.635.461-1.72 1.868-2.157 2.705-5.64 1.244.88 2.061 4.43 2.57 6.331.82-1.69 2.253-4.907 3.156-6.47.96 2.275 1.25 8.137 1.865 10.432 1.86-5.01 2.784-8.91 3.978-10.25.304 1.646 1.88 4.217 2.283 7.128 1.208-2.347 1.603-4.647 2.405-6.971 1.54 1.177 3.813 5.958 4.586 10.037 1.283-1.663 1.105-4.556 2.604-6.93 1.454 1.485 1.875 3.478 2.249 6.17 1.546-2.273 2.134-4.442 4.386-6.605.25.482 1.656 6.5 1.656 6.5l.097-5.208s3.348 4.7 4.236 6.081c-.023-2.322.846-5.552.972-7.306 2.447 2.318 2.466 3.938 4.164 9.114.812-4.586 1.724-7.697 1.956-11.643 1.117 1.667 3.49 3.344 4.724 5.784.409-1.387.392-3.497.589-5.246 2.502 3.133 3.536 4.478 5.742 9.398.157-3.073-.042-5.63 1.406-9.032 1.585 1.61 1.347 2.17 3.01 6.152.297-1.64 2.114-1.942 2.044-4.48 1.97 1.724 1.383 4.467 1.905 7.728.104-1.397 3.057-9.327 2.876-11.195 1.162.972.563 2.957 2.605 5.17.225-.753 2.088-3.585 1.907-5.034 1.346 2.263 1.182 1.487 2.568 4.341.64-1.15.94-2.885.821-5.209 1.05 1.474 2.309 4.141 2.309 4.141s2.083-2.798 1.802-4.343c0 0 2.076 2.03 3.373 4.827.098-1.965-.032-5.04-.048-7.56.856 1.071 1.595.168 2.567 3.211.174-2.113-.414-3.72-.621-5.58z" fill="url(#c)" fill-rule="evenodd"/></g></svg>