<?xml version="1.0" encoding="UTF-8" standalone="no"?>
<!-- Created with Inkscape (http://www.inkscape.org/) -->

<svg
   xmlns:dc="http://purl.org/dc/elements/1.1/"
   xmlns:cc="http://creativecommons.org/ns#"
   xmlns:rdf="http://www.w3.org/1999/02/22-rdf-syntax-ns#"
   xmlns:svg="http://www.w3.org/2000/svg"
   xmlns="http://www.w3.org/2000/svg"
   xmlns:sodipodi="http://sodipodi.sourceforge.net/DTD/sodipodi-0.dtd"
   xmlns:inkscape="http://www.inkscape.org/namespaces/inkscape"
   width="600"
   height="600"
   viewBox="0 0 600 600"
   id="svg2"
   version="1.1"
   inkscape:version="0.91 r13725"
   sodipodi:docname="TypeS-S-600-FAVICON.svg"
   inkscape:export-filename="C:\Users\Takumiya_Cho\Desktop\KoSho\TypeS-S-600-FAVICON.png"
   inkscape:export-xdpi="90"
   inkscape:export-ydpi="90">
  <defs
     id="defs4">
    <filter
       style="color-interpolation-filters:sRGB"
       inkscape:label="Drop Shadow"
       id="filter4771">
      <feFlood
         flood-opacity="1"
         flood-color="rgb(0,0,0)"
         result="flood"
         id="feFlood4773" />
      <feComposite
         in="flood"
         in2="SourceGraphic"
         operator="in"
         result="composite1"
         id="feComposite4775" />
      <feGaussianBlur
         in="composite1"
         stdDeviation="5"
         result="blur"
         id="feGaussianBlur4777" />
      <feOffset
         dx="0"
         dy="0"
         result="offset"
         id="feOffset4779" />
      <feComposite
         in="SourceGraphic"
         in2="offset"
         operator="over"
         result="composite2"
         id="feComposite4781" />
    </filter>
    <filter
       style="color-interpolation-filters:sRGB"
       inkscape:label="Drop Shadow"
       id="filter4758">
      <feFlood
         flood-opacity="1"
         flood-color="rgb(0,0,0)"
         result="flood"
         id="feFlood4760" />
      <feComposite
         in="flood"
         in2="SourceGraphic"
         operator="in"
         result="composite1"
         id="feComposite4762" />
      <feGaussianBlur
         in="composite1"
         stdDeviation="5"
         result="blur"
         id="feGaussianBlur4764" />
      <feOffset
         dx="0"
         dy="0"
         result="offset"
         id="feOffset4766" />
      <feComposite
         in="SourceGraphic"
         in2="offset"
         operator="over"
         result="composite2"
         id="feComposite4768" />
    </filter>
    <filter
       style="color-interpolation-filters:sRGB"
       inkscape:label="Drop Shadow"
       id="filter4746">
      <feFlood
         flood-opacity="1"
         flood-color="rgb(0,0,0)"
         result="flood"
         id="feFlood4748" />
      <feComposite
         in="flood"
         in2="SourceGraphic"
         operator="in"
         result="composite1"
         id="feComposite4750" />
      <feGaussianBlur
         in="composite1"
         stdDeviation="5"
         result="blur"
         id="feGaussianBlur4752" />
      <feOffset
         dx="0"
         dy="0"
         result="offset"
         id="feOffset4754" />
      <feComposite
         in="SourceGraphic"
         in2="offset"
         operator="over"
         result="composite2"
         id="feComposite4756" />
    </filter>
    <filter
       style="color-interpolation-filters:sRGB"
       inkscape:label="Drop Shadow"
       id="filter4734">
      <feFlood
         flood-opacity="1"
         flood-color="rgb(0,0,0)"
         result="flood"
         id="feFlood4736" />
      <feComposite
         in="flood"
         in2="SourceGraphic"
         operator="in"
         result="composite1"
         id="feComposite4738" />
      <feGaussianBlur
         in="composite1"
         stdDeviation="5"
         result="blur"
         id="feGaussianBlur4740" />
      <feOffset
         dx="0"
         dy="0"
         result="offset"
         id="feOffset4742" />
      <feComposite
         in="SourceGraphic"
         in2="offset"
         operator="over"
         result="composite2"
         id="feComposite4744" />
    </filter>
    <filter
       style="color-interpolation-filters:sRGB"
       inkscape:label="Drop Shadow"
       id="filter4207">
      <feFlood
         flood-opacity="1"
         flood-color="rgb(0,0,0)"
         result="flood"
         id="feFlood4209" />
      <feComposite
         in="flood"
         in2="SourceGraphic"
         operator="in"
         result="composite1"
         id="feComposite4211" />
      <feGaussianBlur
         in="composite1"
         stdDeviation="5"
         result="blur"
         id="feGaussianBlur4213" />
      <feOffset
         dx="0"
         dy="0"
         result="offset"
         id="feOffset4215" />
      <feComposite
         in="SourceGraphic"
         in2="offset"
         operator="over"
         result="composite2"
         id="feComposite4217" />
    </filter>
  </defs>
  <sodipodi:namedview
     id="base"
     pagecolor="#ffffff"
     bordercolor="#666666"
     borderopacity="1.0"
     inkscape:pageopacity="0"
     inkscape:pageshadow="2"
     inkscape:zoom="0.98994949"
     inkscape:cx="329.81465"
     inkscape:cy="331.71538"
     inkscape:document-units="px"
     inkscape:current-layer="layer1"
     showgrid="true"
     units="px"
     inkscape:window-width="1920"
     inkscape:window-height="965"
     inkscape:window-x="-8"
     inkscape:window-y="-8"
     inkscape:window-maximized="1">
    <inkscape:grid
       type="xygrid"
       id="grid4188" />
  </sodipodi:namedview>
  <metadata
     id="metadata7">
    <rdf:RDF>
      <cc:Work
         rdf:about="">
        <dc:format>image/svg+xml</dc:format>
        <dc:type
           rdf:resource="http://purl.org/dc/dcmitype/StillImage" />
        <dc:title></dc:title>
        <cc:license
           rdf:resource="http://creativecommons.org/licenses/by/3.0/" />
      </cc:Work>
      <cc:License
         rdf:about="http://creativecommons.org/licenses/by/3.0/">
        <cc:permits
           rdf:resource="http://creativecommons.org/ns#Reproduction" />
        <cc:permits
           rdf:resource="http://creativecommons.org/ns#Distribution" />
        <cc:requires
           rdf:resource="http://creativecommons.org/ns#Notice" />
        <cc:requires
           rdf:resource="http://creativecommons.org/ns#Attribution" />
        <cc:permits
           rdf:resource="http://creativecommons.org/ns#DerivativeWorks" />
      </cc:License>
    </rdf:RDF>
  </metadata>
  <g
     inkscape:groupmode="layer"
     id="layer2"
     inkscape:label="レイヤー 2">
    <path
       style="display:inline;fill:#ffffff;fill-opacity:1;fill-rule:evenodd;stroke:none;stroke-width:1px;stroke-linecap:butt;stroke-linejoin:miter;stroke-opacity:1"
       d="m 298.8293,14.801205 c -45.86521,45.864604 -91.73047,91.729165 -137.5957,137.593755 -17.79948,0 -35.59896,0 -53.39844,0 -0.0378,147.04754 0.17918,294.09503 0.11523,441.14258 34.89395,-34.89447 69.78775,-69.78908 104.68164,-104.6836 29.14453,29.14389 58.2891,58.28773 87.4336,87.43164 29.10807,-29.10807 58.21614,-58.21614 87.32422,-87.32422 34.85286,34.85287 69.70573,69.70573 104.55859,104.5586 0.075,-147.03387 -0.14896,-294.06769 -0.11328,-441.10156 -17.63644,-0.3159 -35.35693,0.48253 -52.92188,-0.36133 C 392.68998,105.83376 346.46667,59.61045 300.24336,13.387143 l -0.7071,0.707106 -0.70696,0.706956 z m 40.3125,230.582035 c -26.20098,-0.15609 -52.40236,0.0303 -78.60352,-0.0117 13.09896,-11.64388 26.19792,-23.28776 39.29688,-34.93164 13.10221,11.64779 26.20443,23.29557 39.30664,34.94336 z m -92.83399,97.17773 c -31.70052,0 -63.40104,0 -95.10156,0 16.7819,-14.91862 33.5638,-29.83724 50.34571,-44.75586 14.91862,14.91862 29.83724,29.83724 44.75585,44.75586 z m 202.15626,0 c -31.60678,0 -63.21355,0 -94.82032,0 14.875,-14.87435 29.75,-29.74869 44.625,-44.62304 16.73177,14.87435 33.46354,29.74869 50.19532,44.62304 z m -124.65626,82.81836 c -15.90097,0.0557 -31.80215,0.0587 -47.70312,0.002 7.95052,-7.95052 15.90104,-15.90105 23.85156,-23.85157 7.95052,7.94987 15.90104,15.89974 23.85156,23.84961 z"
       id="path4170"
       inkscape:connector-curvature="0" />
  </g>
  <g
     inkscape:label="レイヤー 1"
     inkscape:groupmode="layer"
     id="layer1"
     transform="translate(0,-452.36216)">
    <path
       style="display:inline;fill:#00a0ea;fill-opacity:1;fill-rule:evenodd;stroke:none;stroke-width:1px;stroke-linecap:butt;stroke-linejoin:miter;stroke-opacity:1"
       d="m 300.24336,482.71806 -117.08008,117.07812 234.15821,0 -117.07813,-117.07812 z m -180.4082,134.03906 0,190 73.60156,-65.42383 -39.69531,-39.69531 -3.41406,-3.41407 91.60742,0 57.90039,-51.46679 57.90039,51.46679 91.89062,0 c -14.41414,14.414 -28.82803,28.82822 -43.24218,43.24219 l 73.45117,65.29102 0,-190 -180,0 -180,0 z m 58.23437,92.95898 121.90625,121.90625 121.90821,-121.90625 -243.81446,0 z m -58.11132,97.20703 0,180 0,29.99997 84.54882,-84.55075 C 187.61434,915.47989 170.72197,898.5871 153.8293,881.69462 l -3.41406,-3.41406 108.18359,0 35.89258,-35.89258 -35.46484,-35.46485 -139.06836,0 z m 220.96679,0 c -11.82788,11.82772 -23.65455,23.65665 -35.48242,35.48438 l 35.87305,35.87305 108.39844,0 -54.19922,54.19921 84.44336,84.44333 0,-209.99997 -139.03321,0 z m -162.76562,82.84961 c 40.63541,40.63542 81.27083,81.27086 121.90625,121.90626 l 121.90625,-121.90626 -243.8125,0 z"
       id="path4152"
       inkscape:connector-curvature="0" />
  </g>
  <g
     inkscape:groupmode="layer"
     id="layer3"
     inkscape:label="Layer 1"
     style="display:inline" />
</svg>
